# xmcd
#
# Track frame offsets: 
#        182
#        17482
#        32320
#        48080
#        63395
#        81745
#        99252
#        115735
#        130477
#        148810
#        164050
#        181900
#
# Disc length: 2633 seconds
#
# Revision: 2
# Processed by: cddbd v1.5.1PL2 Copyright (c) Steve Scherf et al.
# Submitted via: ExactAudioCopy v0.95b4
#
DISCID=9e0a470c
DTITLE=Ron Hynes - Cryer's Paradise
DYEAR=1993
DGENRE=Country
TTITLE0=Cryer's Paradise
TTITLE1=Man of a Thousand Songs
TTITLE2=No Kathleen
TTITLE3=If I Left You Alone With My Heart
TTITLE4=Story of My Life
TTITLE5=Maybe She Went Crazy
TTITLE6=River of No Return
TTITLE7=False Hearted Love
TTITLE8=Where Do You Get Off
TTITLE9=Picture to Hollywood
TTITLE10=Roy Orbison Came On
TTITLE11=Atlantic Blue
EXTD=Given to me by Donna Simms, August 7, '97.\nCD given to her by Ro
EXTD=n Hynes after his performance in Rosanne's living room.
EXTT0=
EXTT1=
EXTT2=
EXTT3=
EXTT4=
EXTT5=
EXTT6=
EXTT7=
EXTT8=
EXTT9=
EXTT10=
EXTT11=
PLAYORDER=
